<?xml version="1.0" encoding="utf-8"?>
<!-- Generator: Adobe Illustrator 23.0.1, SVG Export Plug-In . SVG Version: 6.00 Build 0)  -->
<svg version="1.1" id="Layer_1" xmlns="http://www.w3.org/2000/svg" xmlns:xlink="http://www.w3.org/1999/xlink" x="0px" y="0px"
	 viewBox="0 0 24 24" style="enable-background:new 0 0 24 24;" xml:space="preserve">
<style type="text/css">
	.st0{fill:#209EBB;}
</style>
<g id="_x32_7">
	<path class="st0" d="M21.9,14.1c0-0.7,0-1.3,0-2c0-0.7,0-1.5,0-2.2c0-1.9,0-3.8,0-5.7c0-0.7-0.3-1.4-0.8-1.8
		c-0.5-0.5-1.2-0.8-1.8-0.8c-1.7,0-3.5,0-5.2,0c-0.7,0-1.4,0-2.1,0H4.7c-1.4,0-2.6,1.2-2.6,2.6c0,0.7,0,1.4,0,2.2v3.2
		c0,3,0,6.1,0,9.1c0,0.7,0.3,1.4,0.8,1.9c0.1,0.1,0.3,0.2,0.4,0.3c0.4,0.3,0.9,0.4,1.3,0.4c0,0,0.1,0,0.1,0h0c0,0,0,0,0.1,0
		c0,0.2,0,0.4,0,0.6c0,0.3,0.1,0.5,0.5,0.5c0.8,0,1.6,0,2.5,0c0.3,0,0.5-0.2,0.5-0.5c0-0.2,0-0.4,0-0.6h7.5c0,0.2,0,0.4,0,0.6
		c0,0.3,0.2,0.4,0.4,0.4c0.8,0,1.7,0,2.5,0c0.3,0,0.4-0.2,0.5-0.5c0-0.2,0-0.4,0-0.6h0c0.1,0,0.1,0,0.2,0c0.5,0,0.9-0.2,1.3-0.5
		c0.1-0.1,0.3-0.2,0.4-0.3c0.5-0.5,0.8-1.2,0.8-1.9C21.9,17.1,21.9,15.6,21.9,14.1z M20.5,18.7c0,0.4-0.1,0.7-0.4,1
		c-0.2,0.2-0.6,0.4-1,0.4c-3,0-6.1,0-9.1,0c-1.2,0-2.3,0-3.5,0c-0.2,0-0.4,0-0.6,0c-0.4,0-0.8,0-1.2,0c-0.8,0-1.3-0.6-1.3-1.3
		c0-3,0-6.1,0-9.1V6.4c0-0.5,0-0.9,0-1.4c0-0.3,0-0.5,0-0.8c0-0.7,0.6-1.3,1.3-1.3H12c0.7,0,1.4,0,2.1,0c1.7,0,3.4,0,5.2,0
		c0.7,0,1.3,0.6,1.3,1.3c0,0.3,0,0.5,0,0.8c0,1.6,0,3.3,0,4.9c0,0.7,0,1.5,0,2.2c0,0.7,0,1.3,0,2C20.5,15.6,20.5,17.1,20.5,18.7z"/>
	<g>
		<path class="st0" d="M9.1,10.4l0-0.1l0,0L9.1,10.4c-0.9,0-1.7,0.7-1.7,1.7c0,0.9,0.7,1.7,1.7,1.7h0h0c0.4,0,0.9-0.2,1.2-0.5
			c0.3-0.3,0.5-0.7,0.5-1.2C10.7,11.1,10,10.4,9.1,10.4z"/>
		<path class="st0" d="M15.2,8.4L15.2,8.4c-0.4,0-0.7,0.3-0.7,0.7c0,0.4,0.3,0.7,0.7,0.7c0.4,0,0.7-0.3,0.7-0.7
			C15.9,8.7,15.6,8.4,15.2,8.4z"/>
		<path class="st0" d="M19.4,15.2c-0.2,0-0.3,0-0.5,0c-0.5,0-0.7-0.3-0.7-0.7c0-0.5,0-0.9,0-1.4c0-0.9,0.1-1,1-1.1
			c0.2,0,0.2-0.1,0.2-0.2c0-0.4,0-0.7,0-1.1c0-0.5,0-0.5-0.5-0.5c-0.5,0-0.8-0.3-0.8-0.8c0-0.5,0-1.1,0-1.6c0-0.4,0.3-0.7,0.7-0.7
			c0.1,0,0.3,0,0.5,0c0-0.1,0-0.2,0-0.2c0-0.7,0-1.5,0-2.2c0-0.4-0.2-0.6-0.6-0.6c-4.5,0-9.1,0-13.6,0c-0.4,0-0.6,0.2-0.6,0.6
			c0,4.5,0,9.1,0,13.6c0,0.5,0.2,0.6,0.6,0.6c4.5,0,9.1,0,13.6,0c0.4,0,0.6-0.2,0.6-0.6c0-0.9,0-1.9,0-2.8
			C19.4,15.4,19.4,15.3,19.4,15.2z M12,12.1c0,1.4-1.1,2.6-2.5,2.8c-0.2,0-0.3,0-0.5,0c-1.5,0-2.7-1.1-2.9-2.6
			c-0.1-0.7,0.1-1.4,0.5-2c0.4-0.6,1-1,1.6-1.2c0,0,0.1,0,0.2,0l0,0c0,0,0-0.1,0-0.1c0-0.1,0-0.2,0-0.4C8.4,8.3,8.7,8,9.1,8
			c0.4,0,0.6,0.3,0.6,0.7c0,0.2,0,0.3,0,0.4c0,0.1,0.2,0.1,0.4,0.2l0,0C11.3,9.7,12,10.8,12,12.1z M15.8,10.6
			c-0.1,0-0.1,0.1-0.2,0.1c0,0,0,0,0,0c0,0.2,0,0.3,0.1,0.4c0.1,0.2,0.2,0.4,0.2,0.7c0,0.4,0,1,0,1.7c0,0.4,0,0.8,0,1.1
			c0,0.5-0.3,0.8-0.8,0.8h0c-0.5,0-0.8-0.3-0.8-0.8c0-0.3,0-0.7,0-1.1c0-0.6,0-1.3,0-1.7c0-0.3,0.1-0.5,0.2-0.7
			c0.1-0.1,0.1-0.3,0.1-0.4c0,0,0,0,0,0c0,0-0.1,0-0.2-0.1c-0.8-0.4-1.2-1.3-0.9-2.1c0.2-0.6,0.8-1.1,1.5-1.1c0.7,0,1.3,0.4,1.5,1.1
			C17,9.3,16.6,10.2,15.8,10.6z"/>
	</g>
</g>
</svg>
