<?xml version="1.0" encoding="utf-8"?>
<!-- Generator: Adobe Illustrator 23.0.1, SVG Export Plug-In . SVG Version: 6.00 Build 0)  -->
<svg version="1.1" id="Layer_1" xmlns="http://www.w3.org/2000/svg" xmlns:xlink="http://www.w3.org/1999/xlink" x="0px" y="0px"
	 viewBox="0 0 24 24" style="enable-background:new 0 0 24 24;" xml:space="preserve">
<style type="text/css">
	.st0{fill:#209EBB;}
	.st1{fill:#FFFFFF;}
</style>
<g>
	<g id="_x37_">
		<path class="st0" d="M16.5,1.9c-0.4-0.6-1.1-0.8-1.8-0.6c-0.2,0.1-0.4,0.1-0.6,0.2c0,0,0,0,0-0.1c-0.4-0.7-1-1-1.7-1
			c0,0-0.1,0-0.1,0c-0.5,0-1.2,0.2-1.7,1.1l0,0c0,0.1-0.1,0.2-0.1,0.2H9.8c-0.8,0-1.6,0.1-2,0.8c-0.3,0.5-0.3,1.1,0,1.6
			c0.1,0.1,0.6,0.7,1.1,1.2C9,5.4,9.3,5.3,9.5,5.3L15,5.5c0.2,0,0.4,0.1,0.6,0.1c0.3-0.5,0.6-1,0.6-1.1c0-0.1,0.1-0.2,0.2-0.4l0-0.1
			c0.1-0.2,0.2-0.3,0.2-0.5C16.9,3,16.8,2.4,16.5,1.9z"/>
		<path class="st0" d="M15.5,6.6c-0.1-0.1-0.3-0.2-0.5-0.2L9.5,6.2C9.1,6.2,8.8,6.6,8.8,7c0,0.2,0.1,0.4,0.2,0.5
			c0.1,0.1,0.3,0.2,0.5,0.2l5.4,0.2l0,0l0,0c0.4,0,0.7-0.3,0.7-0.7C15.7,7,15.6,6.8,15.5,6.6z"/>
		<path class="st0" d="M20.1,21.8c-0.1-0.2-0.3-0.4-0.4-0.6c-0.1-0.2-0.3-0.3-0.3-0.5c-0.4-1.1-0.2-2.5-0.1-3.5
			c0.5-2.9,0.4-3.7-0.4-5.6c-0.5-1.2-1.6-2.3-2.8-3.2c-0.3,0.3-0.7,0.5-1.2,0.5h0L9.5,8.6C9,8.6,8.6,8.4,8.3,8.1
			c0,0-0.1-0.1-0.1-0.1C7.3,8.6,6.4,9.2,5.9,9.9c-2,2.9-1.7,5.2-1.3,7.3c0,0.1,0,0.2,0.1,0.3c0.1,0.5,0.2,0.9,0.2,1.3
			c0,0.4-0.1,0.9-0.3,1.4c-0.1,0.1-0.2,0.3-0.3,0.5C4.2,20.8,4.1,21,4,21.2c-0.2,0.3-0.2,0.7,0,1c0.1,0.3,0.4,0.6,0.8,0.6
			c0.6,0.1,1.3,0.1,1.9,0c0.2,0,0.3,0,0.5,0c0.7-0.1,1.4,0.1,2.2,0.3c0.4,0.1,0.8,0.2,1.2,0.3c0.5,0.1,0.9,0.1,1.4,0.1
			c1.1,0,2.1-0.2,3.1-0.4c0.1,0,0.2,0,0.3-0.1c0.1,0,0.2,0,0.3-0.1c0.6-0.1,1.1-0.2,1.7-0.2c0,0,0.1,0,0.1,0c0.3,0,0.8,0,1.2,0
			c0.9,0,1.2-0.1,1.4-0.4C20.2,22.2,20.2,21.9,20.1,21.8z"/>
	</g>
	<g>
		<path class="st1" d="M11,16.9v3.2H9.9v-4.6H8.8v-0.9h1.1V14H8.8v-0.8h1.1v-1.4h3c0.6,0,1.2,0.2,1.7,0.5c0.5,0.3,0.8,0.5,0.9,0.9
			h1.4V14h-1.1v0.3v0.3h1.1v0.8h-1.2c-0.6,0.9-1.6,1.4-2.9,1.4L11,16.9L11,16.9z M11,13.3h3.3c-0.2-0.3-0.8-0.5-1.2-0.5h-2L11,13.3
			L11,13.3z M14.8,14.3V14H11v0.6h3.8V14.3z M14.4,15.4H11v0.5h1.9C13.5,15.9,14.1,15.7,14.4,15.4z"/>
	</g>
</g>
</svg>
