<?xml version="1.0" encoding="utf-8"?>
<!-- Generator: Adobe Illustrator 23.0.1, SVG Export Plug-In . SVG Version: 6.00 Build 0)  -->
<svg version="1.1" id="Layer_1" xmlns="http://www.w3.org/2000/svg" xmlns:xlink="http://www.w3.org/1999/xlink" x="0px" y="0px"
	 viewBox="0 0 24 24" style="enable-background:new 0 0 24 24;" xml:space="preserve">
<style type="text/css">
	.st0{fill:#209EBB;}
</style>
<g id="_x32_0">
	<path class="st0" d="M22.3,4.4l0-0.4c0-0.7-0.2-1.2-0.5-1.5C21.4,2.2,21,2,20.3,2l-4.1,0L9.9,2L6.5,2c-1.2,0-1.8,0-3,0
		c-1,0-1.8,0.7-1.8,1.7c0,0.6,0,1.1,0,1.7c0,0.9,0.7,1.6,1.7,1.6l0.7,0V5.1c0-0.4,0.3-0.7,0.7-0.7h14.4c0.4,0,0.7,0.3,0.7,0.7V7
		l0.7,0c1-0.1,1.6-0.7,1.7-1.7C22.3,5,22.3,4.7,22.3,4.4z"/>
	<path class="st0" d="M17.2,19.9v-12c0-1.1-0.9-2.1-2.1-2.1H8.8c-1.1,0-2.1,0.9-2.1,2.1v12c0,1.1,0.9,2.1,2.1,2.1h6.3
		C16.3,22,17.2,21.1,17.2,19.9z M10.6,15.2H9.8v-4.4h0.8V15.2z M11.7,10.9h0.8c0,0.2,0.1,0.3,0.2,0.4v1.5c-0.6,0-1-0.5-1-1.1V10.9z
		 M13.1,12.8v-1.3c0,0,0.1,0,0.1,0H14c0,0,0.1,0,0.1,0v1.3H13.1z M15.6,10.9v0.8c0,0.6-0.4,1-1,1.1v-1.5c0.1-0.1,0.2-0.2,0.2-0.4
		H15.6z M14.4,10.1h1.2v0.4h-1.2v0.2c0,0.2-0.2,0.4-0.4,0.4h-0.9c-0.2,0-0.4-0.2-0.4-0.4v-0.2h-1.2v-0.4h1.2V9.9
		c0-0.2,0.2-0.4,0.4-0.4H14c0.2,0,0.4,0.2,0.4,0.4V10.1z M10.6,7.9v2H9.8v-2H10.6z M12.7,7.9v1.5c-0.1,0.1-0.2,0.2-0.2,0.4h-0.8V9
		C11.7,8.4,12.1,7.9,12.7,7.9z M15.6,9v0.8h-0.8c0-0.1-0.1-0.3-0.2-0.4V7.9C15.1,7.9,15.6,8.4,15.6,9z M14.2,7.9v1.3
		c0,0-0.1,0-0.1,0h-0.9c0,0-0.1,0-0.1,0V7.9H14.2z M8.1,18.7V7.9h0.8v10.7H8.1z"/>
</g>
</svg>
