<?xml version="1.0" encoding="utf-8"?>
<!-- Generator: Adobe Illustrator 23.0.1, SVG Export Plug-In . SVG Version: 6.00 Build 0)  -->
<svg version="1.1" id="Layer_1" xmlns="http://www.w3.org/2000/svg" xmlns:xlink="http://www.w3.org/1999/xlink" x="0px" y="0px"
	 viewBox="0 0 24 24" style="enable-background:new 0 0 24 24;" xml:space="preserve">
<style type="text/css">
	.st0{fill:#209EBB;}
</style>
<g id="_x33_0">
	<path class="st0" d="M22.1,13.4c0-0.1,0-0.2,0-0.3c-0.1-0.6-0.6-0.9-1.2-0.9c-2.4,0-4.2,0-6.3-0.1l-1.2,0l-1.2,0
		c-2.2-0.1-4-0.1-6.3-0.2c-0.6,0-1.1,0.3-1.3,0.9c0,0.1,0,0.2,0,0.3c-0.1,2.4-0.1,4.9-0.2,7.3c0,0.7,0.5,1.2,1.2,1.3l8.1,0.2l0,0
		l0.1,0l0.2,0l0,0l6.8,0.1c0.7,0,1.2-0.5,1.2-1.2C22,18.4,22.1,15.9,22.1,13.4z M17.6,20.3c-1.7,0-3.1,0-4.3,0l-0.1,0l-0.1,0
		c-1.2,0-2.6-0.1-4.3-0.1c-0.2-0.9-0.8-1.5-1.7-1.8c0-0.9,0.1-1.8,0.1-2.9c0.9-0.2,1.4-0.7,1.7-1.5l0-0.1c0,0,0-0.1,0-0.1
		c1.6,0,3,0.1,4.4,0.1c1.4,0,2.8,0,4.4,0c0,0,0,0.1,0,0.1l0,0.1c0.2,0.8,0.8,1.4,1.6,1.5c0,1.1,0,2.1,0,2.9
		C18.4,18.8,17.8,19.4,17.6,20.3z"/>
	<path class="st0" d="M20.7,11.2c0-0.6-0.4-1-1-1.1c-2.3-0.4-4.1-0.8-6.2-1.1l-1.2-0.2l-1.2-0.2C9,8,7.2,7.7,4.9,7.2
		C4.3,7.1,3.7,7.3,3.5,7.8C3.4,8,3.4,8.1,3.4,8.2c-0.5,2.4-1,4.8-1.4,7.2c-0.1,0.7,0.2,1.3,1,1.5l0.5,0.1c0-1.3,0.1-2.5,0.1-3.8
		c0-0.1,0-0.3,0.1-0.6C3.8,11.6,4.6,11,5.6,11c0,0,0-0.1,0-0.1c0.9,0,1.5-0.4,1.9-1.2l0-0.1c0,0,0-0.1,0.1-0.1
		c1.6,0.3,2.9,0.6,4.3,0.9c1.4,0.3,2.7,0.5,4.3,0.8c0,0,0,0,0,0C17.7,11.2,19.1,11.2,20.7,11.2C20.7,11.2,20.7,11.2,20.7,11.2z"/>
	<path class="st0" d="M16.4,7.3l-1-0.7l-1-0.7c-1.8-1.3-3.2-2.3-5.2-3.7c-0.5-0.4-1.1-0.4-1.5,0C7.7,2.4,7.6,2.5,7.5,2.5
		C6.7,3.8,5.8,5,4.9,6.2c0,0,0.1,0,0.1,0l0.1,0c1,0.2,1.9,0.4,2.8,0.6c0.2-0.3,0.4-0.6,0.6-0.9c0.8,0.4,1.6,0.2,2.2-0.3l0.1,0
		c0,0,0.1,0,0.1-0.1c1.3,0.9,2.4,1.7,3.6,2.5c0,0,0.1,0,0.1,0.1l0.1,0c1.4,0.3,2.6,0.5,4.1,0.7C17.9,8.4,17.2,7.9,16.4,7.3z"/>
	<path class="st0" d="M15.1,17c0,1-0.9,1.9-1.9,1.9c-1,0-1.9-0.9-1.9-1.9c0-1,0.9-1.9,1.9-1.9C14.3,15.1,15.1,16,15.1,17z"/>
</g>
</svg>
