<?xml version="1.0" encoding="utf-8"?>
<!-- Generator: Adobe Illustrator 23.0.1, SVG Export Plug-In . SVG Version: 6.00 Build 0)  -->
<svg version="1.1" id="Layer_1" xmlns="http://www.w3.org/2000/svg" xmlns:xlink="http://www.w3.org/1999/xlink" x="0px" y="0px"
	 viewBox="0 0 24 24" style="enable-background:new 0 0 24 24;" xml:space="preserve">
<style type="text/css">
	.st0{fill:#209EBB;}
</style>
<g>
	<path class="st0" d="M19,3H5C3.9,3,3,3.9,3,5v14c0,1.1,0.9,2,2,2h14c1.1,0,2-0.9,2-2V5C21,3.9,20.1,3,19,3z M12,18
		c-0.7,0-1.3-0.6-1.3-1.3c0-0.7,0.6-1.3,1.3-1.3c0.7,0,1.3,0.5,1.3,1.3C13.3,17.4,12.7,18,12,18z M15,10.6c-0.8,1.1-1.5,1.5-1.9,2.2
		c-0.2,0.3-0.2,0.5-0.2,1.4h-1.8c0-0.5-0.1-1.3,0.3-2c0.5-0.9,1.4-1.4,2-2.2C14,9.2,13.6,7.7,12,7.7c-1.1,0-1.6,0.8-1.8,1.5L8.6,8.5
		C9,7.2,10.2,6,12,6c1.5,0,2.5,0.7,3,1.5C15.4,8.2,15.7,9.6,15,10.6z"/>
</g>
</svg>
