<?xml version="1.0" encoding="utf-8"?>
<!-- Generator: Adobe Illustrator 23.0.1, SVG Export Plug-In . SVG Version: 6.00 Build 0)  -->
<svg version="1.1" id="Layer_1" xmlns="http://www.w3.org/2000/svg" xmlns:xlink="http://www.w3.org/1999/xlink" x="0px" y="0px"
	 viewBox="0 0 24 24" style="enable-background:new 0 0 24 24;" xml:space="preserve">
<style type="text/css">
	.st0{fill:#209EBB;}
</style>
<g>
	<g>
		<path class="st0" d="M18.2,11.3l-1.8-8.5l0,0v0h-4.8v2.1h3.1l0.7,3.5l-4.5,1.2l-1.8,0.5c0.3-0.3,0.4-0.6,0.4-1
			c0-0.8-0.6-1.4-1.4-1.4H3.8c-0.8,0-1.4,0.6-1.4,1.4c0,0.8,0.6,1.4,1.4,1.4V13C2.2,13.5,1,15.1,1,17c0,2.4,1.9,4.3,4.3,4.3
			s4.3-1.9,4.3-4.3c0-1.8-1.1-3.4-2.7-4l9.1-2.5l0.3,1.2c-1.8,0.7-3.1,2.5-3.1,4.6c0,2.7,2.2,5,5,5s5-2.2,5-5
			C23,13.6,20.9,11.4,18.2,11.3z M7.2,17c0,1.1-0.9,2-2,2c-1.1,0-2-0.9-2-2s0.9-2,2-2S7.2,15.9,7.2,17z M18,19.1
			c-1.6,0-2.8-1.3-2.8-2.8c0-1.6,1.3-2.8,2.8-2.8s2.8,1.3,2.8,2.8C20.9,17.8,19.6,19.1,18,19.1z"/>
	</g>
</g>
</svg>
